<svg width="11" height="11" viewBox="0 0 11 11" fill="none" xmlns="http://www.w3.org/2000/svg">
<path d="M6.81533 9.7611C6.78163 9.93476 6.72242 10.0941 6.63679 10.24C6.54843 10.3895 6.43275 10.5247 6.29064 10.6428C6.14763 10.761 5.99278 10.8505 5.82426 10.9105C5.65574 10.9705 5.4772 11 5.28864 11C5.09917 11 4.92063 10.9696 4.75302 10.9105C4.58542 10.8505 4.42965 10.7619 4.28755 10.6428C4.14453 10.5238 4.02976 10.3895 3.9414 10.24C3.85304 10.0905 3.79292 9.92581 3.76013 9.74499C3.74373 9.65727 3.80385 9.57312 3.89312 9.55701C3.89586 9.55701 3.92227 9.55432 3.92227 9.55432H6.65683C6.74792 9.55432 6.82262 9.62683 6.82262 9.71724C6.82171 9.73246 6.81897 9.74678 6.81533 9.7611ZM1.84084 0.022709C2.00753 -0.0426374 2.19609 0.0379266 2.26259 0.20174C2.32909 0.365554 2.2471 0.550851 2.08041 0.616197C1.71968 0.757632 1.41726 0.953671 1.17587 1.20789C0.935389 1.46212 0.754118 1.77721 0.635699 2.15586C0.582866 2.32415 0.400684 2.41904 0.229432 2.36712C0.0581805 2.3152 -0.0383762 2.13617 0.0144567 1.96788C0.162935 1.49345 0.392485 1.096 0.699463 0.771954C1.00644 0.448803 1.38811 0.19995 1.84084 0.022709ZM8.49596 0.616197C8.32927 0.550851 8.24728 0.365554 8.31378 0.20174C8.38028 0.0379266 8.56884 -0.0426374 8.73553 0.022709C9.18826 0.19995 9.56993 0.448803 9.87691 0.772849C10.1839 1.09779 10.4143 1.49524 10.5619 1.96878C10.6147 2.13707 10.5182 2.3161 10.3469 2.36802C10.1757 2.41994 9.9935 2.32505 9.94067 2.15676C9.82225 1.77721 9.64098 1.46212 9.4005 1.20879C9.15911 0.953671 8.85668 0.757632 8.49596 0.616197ZM6.55025 1.06915C6.73608 1.14165 6.91462 1.22848 7.08587 1.32964C7.09225 1.33411 7.09953 1.33769 7.10591 1.34217C7.26988 1.44153 7.42291 1.55074 7.56319 1.6689C7.86288 1.92223 8.11247 2.21942 8.31014 2.556C8.40852 2.72429 8.49323 2.89974 8.56337 3.08056C8.63533 3.26765 8.68908 3.45832 8.72551 3.65435C8.76104 3.85129 8.77926 4.0527 8.77926 4.25948C8.77926 4.66767 8.77926 4.88877 8.77926 4.91563C8.78017 5.12509 8.78108 5.33009 8.7829 5.52971V5.5315C8.78381 5.71232 8.79565 5.89403 8.81843 6.07575C8.8412 6.25568 8.87399 6.42934 8.9168 6.59673C8.95962 6.76144 9.01792 6.92078 9.08988 7.07295C9.16457 7.22961 9.25566 7.38357 9.36224 7.53306H9.36315C9.46882 7.67987 9.6009 7.82578 9.7594 7.969C9.92336 8.1167 10.1128 8.26261 10.3296 8.40405C10.4535 8.48551 10.4872 8.65111 10.4034 8.77285C10.3515 8.84894 10.2659 8.89101 10.1784 8.89101V8.89191H7.73262H5.28864H2.84284H0.397951C0.24765 8.89191 0.126499 8.77285 0.126499 8.62515C0.126499 8.52848 0.179332 8.44344 0.25767 8.39689C0.4772 8.25098 0.665759 8.10596 0.823347 7.96274C0.980024 7.82041 1.1112 7.6745 1.21686 7.52411C1.21959 7.51964 1.22324 7.51516 1.22688 7.51158C1.3289 7.36477 1.41635 7.21528 1.48831 7.06311C1.5621 6.90824 1.62131 6.74891 1.66503 6.58509C1.66594 6.58151 1.66685 6.57793 1.66776 6.57525C1.70966 6.41591 1.74155 6.24762 1.76341 6.07127C1.78527 5.89403 1.79711 5.71053 1.79711 5.52165V4.25948C1.79711 4.05628 1.81533 3.85487 1.85268 3.65346C1.89003 3.45294 1.94377 3.26049 2.01573 3.07698C2.08678 2.89347 2.17241 2.71713 2.2717 2.54884C2.4721 2.20868 2.72078 1.91417 3.02502 1.65905C3.1735 1.53463 3.33382 1.42094 3.50598 1.31979C3.67997 1.21774 3.86033 1.13181 4.04616 1.06198C4.17551 1.01365 4.30941 0.973364 4.44605 0.940243C4.4925 0.780011 4.57266 0.650213 4.68653 0.550851C4.8432 0.413892 5.04907 0.34586 5.30504 0.348546C5.55827 0.350336 5.76323 0.419263 5.91808 0.556222C6.46554 1.03513 5.78418 0.771954 6.55025 1.06915Z" fill="white"/>
</svg>
